# xmcd
#
# Track frame offsets: 
#        150
#        11806
#        26721
#        43446
#        59019
#        65597
#        77401
#        94244
#        107731
#        112203
#        120586
#        134867
#        143405
#        151837
#        167252
#        182450
#
# Disc length: 2751 seconds
#
# Revision: 0
# Processed by: cddbd v1.5.2PL0 Copyright (c) Steve Scherf et al.
# Submitted via: ExactAudioCopy v1.0b3
#
DISCID=de0abd10
DTITLE=Jean-Paul Amouroux, Memphis Slim - Boogie For 2 Pianos
DYEAR=1900
DGENRE=
TTITLE0=Pinetop's Boogie Woogie
TTITLE1=Four O'Clock Boogie
TTITLE2=Blues For Jimmy Yancey
TTITLE3=Drums Boogie Woogie
TTITLE4=Short Boogie
TTITLE5=New Three And One Boogie
TTITLE6=Huchette Blues
TTITLE7=Tribute to Willie Dixon
TTITLE8=All By Myself
TTITLE9=Boogie For Chuck Berry
TTITLE10=Blues in the Evening
TTITLE11=I'm Lost Without You
TTITLE12=Bye Bye Blues
TTITLE13=Celestial Boogie
TTITLE14=Huchette Boogie Woogie
TTITLE15=Boogie And Drums
EXTD=
EXTT0=
EXTT1=
EXTT2=
EXTT3=
EXTT4=
EXTT5=
EXTT6=
EXTT7=
EXTT8=
EXTT9=
EXTT10=
EXTT11=
EXTT12=
EXTT13=
EXTT14=
EXTT15=
PLAYORDER=
